<?xml version="1.0" encoding="UTF-8"?>
<!DOCTYPE svg PUBLIC "-//W3C//DTD SVG 1.1//EN" "http://www.w3.org/Graphics/SVG/1.1/DTD/svg11.dtd">
<!-- Creator: CorelDRAW X7 -->
<svg xmlns="http://www.w3.org/2000/svg" xml:space="preserve" width="1527px" height="281px" version="1.1" style="shape-rendering:geometricPrecision; text-rendering:geometricPrecision; image-rendering:optimizeQuality; fill-rule:evenodd; clip-rule:evenodd"
viewBox="0 0 5715 1051"
 xmlns:xlink="http://www.w3.org/1999/xlink">
 <defs>
  <style type="text/css">
   <![CDATA[
    .fil0 {fill:#333333}
    .fil1 {fill:#FF2600}
   ]]>
  </style>
 </defs>
 <g id="Layer_x0020_1">
  <metadata id="CorelCorpID_0Corel-Layer"/>
  <path class="fil0" d="M741 1008c3,11 1,21 -5,30 -7,9 -16,13 -27,13l-102 0c-16,0 -27,-7 -31,-22l-222 -666 -187 560c-5,14 -15,22 -31,22l-103 0c-11,0 -20,-5 -26,-14 -7,-9 -9,-19 -5,-29l259 -772c5,-15 15,-22 31,-22l124 0c16,0 27,7 32,22l293 878zm553 -1008c13,0 22,6 29,17 6,11 5,21 -1,32l-300 499 0 364c0,9 -3,16 -9,23 -6,6 -14,10 -23,10l-98 0c-9,0 -16,-4 -23,-10 -6,-7 -10,-14 -10,-23l0 -364 -235 -393c-6,-10 -6,-21 0,-32 6,-11 16,-17 29,-17l112 0c13,0 23,6 28,16l148 245 212 -351c6,-11 15,-16 28,-16l113 0zm415 943c-57,0 -112,-11 -163,-33 -52,-22 -96,-51 -134,-88 -37,-37 -67,-82 -89,-134 -22,-51 -33,-106 -33,-162 0,-76 19,-146 56,-210 37,-65 88,-116 152,-153 65,-37 135,-55 211,-55 75,0 145,18 209,55 65,37 115,88 153,153 37,64 56,134 56,210 0,75 -19,145 -56,209 -38,65 -88,116 -153,153 -64,37 -134,55 -209,55zm0 -162c45,0 88,-12 127,-35 40,-22 71,-53 93,-93 23,-39 35,-81 35,-127 0,-34 -6,-67 -19,-98 -13,-32 -32,-59 -56,-83 -24,-24 -51,-42 -82,-55 -49,-20 -98,-24 -149,-15 -50,10 -94,33 -130,70 -37,37 -60,80 -70,131 -10,51 -5,100 14,147 20,48 51,86 95,115 43,28 90,43 142,43z"/>
  <path class="fil0" d="M3351 108c9,-1 16,2 23,8 7,7 10,15 10,23l0 773c0,5 -1,9 -3,13 -2,4 -5,8 -8,10 -2,3 -6,6 -10,7 -4,2 -8,3 -12,3l-97 0c-6,0 -12,-2 -17,-5 -5,-2 -9,-7 -12,-12 -3,-5 -4,-11 -4,-16l0 -407 -203 475c-6,13 -16,20 -30,20 -14,0 -24,-7 -30,-20l-203 -475 0 407c0,5 -1,9 -3,13 -1,4 -3,8 -6,10 -3,3 -7,6 -11,7 -4,2 -8,3 -13,3l-97 0c-9,0 -17,-4 -23,-10 -7,-7 -10,-14 -10,-23l0 -773c0,-8 3,-16 10,-22 6,-6 14,-9 23,-9l115 0c15,0 25,6 31,19l216 509 218 -509c6,-13 16,-19 31,-19l115 0zm895 900c4,11 2,21 -4,30 -7,9 -16,13 -27,13l-102 0c-16,0 -27,-7 -32,-22l-221 -666 -187 560c-5,14 -16,22 -31,22l-103 0c-11,0 -20,-5 -27,-14 -6,-9 -8,-19 -5,-29l260 -772c5,-15 15,-22 30,-22l125 0c16,0 26,7 32,22l292 878zm414 -900c76,0 146,18 211,54 64,35 116,85 155,148 39,62 59,131 61,206 1,57 -9,111 -29,163 -21,52 -51,99 -90,139 -40,40 -85,72 -137,94 -52,22 -106,33 -162,33l-266 0c-9,0 -17,-4 -23,-10 -7,-7 -10,-14 -10,-23l0 -771c0,-10 3,-18 10,-24 6,-6 14,-9 23,-9l257 0zm-127 674l136 0c70,0 130,-25 180,-75 50,-51 75,-111 75,-181 0,-71 -25,-131 -75,-181 -50,-50 -110,-75 -180,-75l-136 0 0 512z"/>
  <path class="fil1" d="M5690 920c-15,16 -34,23 -57,23 -22,0 -41,-7 -56,-23 -16,-15 -24,-34 -24,-57 0,-22 8,-41 24,-57 15,-15 34,-23 56,-23 23,0 42,8 57,23 16,16 24,35 24,57 0,23 -8,42 -24,57zm-8 -181l-97 0c-6,0 -11,-1 -16,-4 -6,-3 -10,-7 -13,-12 -2,-6 -4,-11 -4,-17l0 -568c0,-9 3,-16 10,-23 6,-7 14,-10 23,-10l97 0c9,0 17,3 23,10 7,7 10,14 10,23l0 568c0,6 -2,11 -4,17 -3,5 -7,9 -12,12 -5,3 -11,4 -17,4z"/>
 </g>
</svg>
